<?xml version="1.0" encoding="UTF-8" standalone="no"?><!DOCTYPE svg PUBLIC "-//W3C//DTD SVG 1.1//EN" "http://www.w3.org/Graphics/SVG/1.1/DTD/svg11.dtd"><svg width="100%" height="100%" viewBox="0 0 100 100" version="1.1" xmlns="http://www.w3.org/2000/svg" xmlns:xlink="http://www.w3.org/1999/xlink" xml:space="preserve" xmlns:serif="http://www.serif.com/" style="fill-rule:evenodd;clip-rule:evenodd;stroke-linejoin:round;stroke-miterlimit:1.41421;"><path d="M68.955,50l28.429,-28.429c3.488,-3.489 3.488,-9.145 0,-12.636l-6.319,-6.319c-3.488,-3.488 -9.145,-3.488 -12.636,0l-28.429,28.429l-28.429,-28.429c-3.489,-3.488 -9.145,-3.488 -12.636,0l-6.319,6.319c-3.488,3.488 -3.488,9.145 0,12.636l28.429,28.429l-28.429,28.429c-3.488,3.489 -3.488,9.145 0,12.636l6.319,6.319c3.488,3.488 9.147,3.488 12.636,0l28.429,-28.429l28.429,28.429c3.489,3.488 9.148,3.488 12.636,0l6.319,-6.319c3.488,-3.488 3.488,-9.145 0,-12.636l-28.429,-28.429Z" style="fill:#fff;fill-rule:nonzero;"/></svg>